/* XPM */
static char *_60bd5a5e12f4223c81abba238c7a966[] = {
/* columns rows colors chars-per-pixel */
"80 80 253 2 ",
"   c None",
".  c #00041C",
"X  c #020B1D",
"o  c #0C151E",
"O  c #1B271B",
"+  c #000423",
"@  c #010C24",
"#  c #00012B",
"$  c #000D2A",
"%  c #011126",
"&  c #01132B",
"*  c #05182E",
"=  c #000233",
"-  c #000B34",
";  c #00053C",
":  c #000B3C",
">  c #090D33",
",  c #011533",
"<  c #011A34",
"1  c #00143C",
"2  c #011B3B",
"3  c #0A1B3A",
"4  c #091A35",
"5  c #111E32",
"6  c #03213D",
"7  c #092338",
"8  c #142939",
"9  c #1A353A",
"0  c #1A2C29",
"q  c #233530",
"w  c #313B1B",
"e  c #36492A",
"r  c #2C4436",
"t  c #324833",
"y  c #395236",
"u  c #324A31",
"i  c #3D4016",
"p  c #4A551A",
"a  c #525E17",
"s  c #59631B",
"d  c #6B761A",
"f  c #6A751B",
"g  c #485928",
"h  c #565E22",
"j  c #576724",
"k  c #4A6539",
"l  c #54682C",
"z  c #647728",
"x  c #64752C",
"c  c #000B45",
"v  c #00024B",
"b  c #000C4C",
"n  c #000445",
"m  c #001344",
"M  c #011D44",
"N  c #00134B",
"B  c #001D4A",
"V  c #0C1C43",
"C  c #000252",
"Z  c #000A54",
"A  c #00065B",
"S  c #001454",
"D  c #001C53",
"F  c #00145B",
"G  c #001C5B",
"H  c #022344",
"J  c #0B2445",
"K  c #01234C",
"L  c #0A244C",
"P  c #032A4D",
"I  c #0C2A4C",
"U  c #082945",
"Y  c #132746",
"T  c #06334C",
"R  c #002553",
"E  c #022B53",
"W  c #0C2C53",
"Q  c #00265A",
"!  c #002A5C",
"~  c #0B2B59",
"^  c #03335C",
"/  c #0A345C",
"(  c #053659",
")  c #17355C",
"_  c #123051",
"`  c #2A3944",
"'  c #001966",
"]  c #001A77",
"[  c #000A6C",
"{  c #002C64",
"}  c #002E6A",
"|  c #012566",
" . c #023464",
".. c #033965",
"X. c #01326B",
"o. c #023B6B",
"O. c #0B3867",
"+. c #173A67",
"@. c #002578",
"#. c #003273",
"$. c #023C74",
"%. c #00347B",
"&. c #013C7B",
"*. c #0C3D74",
"=. c #143E7D",
"-. c #284747",
";. c #39454C",
":. c #384A57",
">. c #31574F",
",. c #3B6855",
"<. c #074269",
"1. c #024275",
"2. c #03437C",
"3. c #094779",
"4. c #134475",
"5. c #175571",
"6. c #2A676E",
"7. c #264E60",
"8. c #475457",
"9. c #495552",
"0. c #4F6E50",
"q. c #4F5D64",
"w. c #586867",
"e. c #487077",
"r. c #626B66",
"t. c #6A746D",
"y. c #707A74",
"u. c #7A861B",
"i. c #7D830D",
"p. c #7B922A",
"a. c #728B31",
"s. c #598959",
"d. c #5D8244",
"f. c #6E954C",
"g. c #4D876A",
"h. c #798479",
"j. c #78A65B",
"k. c #868809",
"l. c #969B0C",
"z. c #838C15",
"x. c #8A9518",
"c. c #949B13",
"v. c #8B920D",
"b. c #9DA30D",
"n. c #9BA91B",
"m. c #A7AC0D",
"M. c #A8AA06",
"N. c #BBBD04",
"B. c #B6BA09",
"V. c #A6AE12",
"C. c #A2AF19",
"Z. c #A8B416",
"A. c #BABD16",
"S. c #ACB20C",
"D. c #96A923",
"F. c #90A92F",
"G. c #A4B623",
"H. c #869325",
"J. c #BEC207",
"K. c #BAC416",
"L. c #B8D731",
"P. c #C1C101",
"I. c #CBCC03",
"U. c #C6C90A",
"Y. c #CED003",
"T. c #D3D401",
"R. c #DCDA00",
"E. c #D4D40D",
"W. c #DADA0D",
"Q. c #D7D909",
"!. c #C7C715",
"~. c #D5D511",
"^. c #C3D015",
"/. c #E1DC00",
"(. c #E4E402",
"). c #ECEB02",
"_. c #E7E705",
"`. c #F0EE00",
"'. c #F4F201",
"]. c #FAF500",
"[. c #FFFF00",
"{. c #848B7B",
"}. c #8ABB53",
"|. c #9EC34B",
" X c #002987",
".X c #003682",
"XX c #003A84",
"oX c #003B8B",
"OX c #023788",
"+X c #002D95",
"@X c #00319B",
"#X c #003A93",
"$X c #0039A8",
"%X c #001687",
"&X c #014483",
"*X c #034B84",
"=X c #0B4C84",
"-X c #034C8B",
";X c #084789",
":X c #09538B",
">X c #135689",
",X c #044A94",
"<X c #035393",
"1X c #045B9C",
"2X c #0C5B9B",
"3X c #085797",
"4X c #145896",
"5X c #124984",
"6X c #09649B",
"7X c #186499",
"8X c #196690",
"9X c #014AA5",
"0X c #045CA3",
"qX c #055AA8",
"wX c #145CA5",
"eX c #0359B4",
"rX c #004AB2",
"tX c #0A62A4",
"yX c #0A65A9",
"uX c #1565A7",
"iX c #0A6AB7",
"pX c #1468B6",
"aX c #0D73BC",
"sX c #1776BA",
"dX c #1A75A9",
"fX c #257BB8",
"gX c #2570AE",
"hX c #225F95",
"jX c #5A7780",
"kX c #005DC2",
"lX c #0568C5",
"zX c #1B7CCC",
"xX c #1778C5",
"cX c #197BD4",
"vX c #0A76CC",
"bX c #257CC6",
"nX c #2886A0",
"mX c #1D85D5",
"MX c #1885C8",
"NX c #2589D8",
"BX c #2792D2",
"VX c #248EE2",
"CX c #2797E5",
"ZX c #2D9AEB",
"AX c #34A5F7",
"SX c #27A1EF",
"DX c #1D92E7",
"FX c #7D9898",
"GX c #8C9484",
"HX c #929986",
"JX c #9CA48A",
"KX c #AEB494",
"LX c #9AB0A3",
/* pixels */
"                                                                                                                                                                ",
"                                !.[.[.[.[.[.[.[.[.[.[.[.[.[.[.[.[.[.[.[.[.[.[.[.[.[.[.[.[.[.[.[.[.[.[.[.[.[.[.[.[.[.[.[.[.[.[.                                  ",
"                                '.[.[.[.[.[.[.[.[.[.[.[.[.[.[.[.[.[.[.[.[.[.[.[.[.[.[.[.[.[.[.[.[.[.[.[.[.[.[.[.[.[.[.[.[.[.[.~.                                ",
"                                [.].b.V.V.V.V.m.m.V.m.V.m.V.V.V.V.V.V.V.V.V.V.V.V.V.V.V.V.V.V.V.V.m.V.m.m.m.m.M.m.m.m.m.m.B.[.[.                                ",
"                              W.[.x.] ' ' @.] @.@. X X X X X+X+X+X@X@X@X@X@X@X@X@X@X@X@X+X+X+X X X X X@. X] @.@.@.' ' ' ' A '.[.!.                              ",
"                              [.[.I Q ! } } } } X.#.#.#.%..X.X.X.XOXoXoXoXoX#XoXoXoXOXOXXXXX%.%.%.%.#.#.} } { } ! ! ! Q Q G u.[.).                              ",
"                            !.[.U.' ! ! | { } } X.#.#.#.%.%.%.%..X.X.XXXXXXXXXXX.X.X.X.X.X%.%.%.#.#.X.X.} } } { { ! ! E R R H [.[.                              ",
"                            ).[.g Q ! ! ! { {  .X.X.#.#.#.%.#.%..X%..X.X.X.XXXXX.XXX%..X%.%.%.#.#.#.X.X.} } { | ! ! Q Q R R F B.[.~.                            ",
"                            [.[.F Q R ! ! | { { } } } #.#.#.#.#.%.%.%.%.%.%..X%.%.%.%.#.%.%.#.#.#.X.} } } { { ! ! ! ! R R R D e [.[.                            ",
"                          ~.[.x.F Q Q Q ! ! ! ! } } } } } #.#.#.#.#.%.%.%.%.%.%.%.%.#.#.#.#.#.} #.X.{ } { | ! | ! R R R R K R S `.[.!.                          ",
"                          [.[.J R R E R E ! | | | { } } X.} X.#.#.#.#.#.#.#.#.#.#.#.#.#.#.#.#.} } } } { { | ! ! ! ! R R K R K S d [.'.                          ",
"                        !.[.P.F R R R R R ! ! ! ! | { } } X.} X.#.#.} #.#.X.#.#.#.#.#.#.X.} X.X.} {  .{ ! ! ! Q Q R R R K R K B M [.[.                          ",
"                        ).[.g G R R R R E ! ! ! ^ ! { { { X.} } } } X.X.X.} X.X.} } X.} } X.} { { { { | ! ! Q ! R R R R K K K B b S.[.E.                        ",
"                        [.].Z D K R R R R R Q ! ! ! ! { { { { } } } } X.} X.} } } } } } } { } { | ! ! ! ! ! E R R R R K R K K B N u [.[.                        ",
"                      ~.[.z.N K R K R B R R Q E ! ! | ! ! { { { } } { } { { } } { } } } { { { ! | ! ! ! Q Q R R R R R K K K B H M v _.[.!.                      ",
"                      [.[.6 B K B R K R R R R R ! ! ! ! ! | | { { { { { { } { { { { { { { { { Q ! ! ! ! R Q E R R R R K M K K M H c z [._.                      ",
"                    !.[.N.Z K K B K R K R R R R R Q ! Q ! ! ! ! ! { ! { ! { { { ! { ! { ! ! ! ! ! Q E Q R R R K R R K B K K M H M M 1 [.[.                      ",
"                    _.[.y N M K B K K K K R R Q E R R ! Q ! ! ! { ! { { { ! ! ! | ! { ! ! ! Q Q ! R R R R K R R R K K K B M M B M B b m.[.~.                    ",
"                    [.].: M M B B K K K K R B R R R R R R Q Q Q Q ! ! Q Q ! { Q ! ! | ! Q Q Q Q E R R R R R K K K K H K M H M H M 2 1 q [.[.                    ",
"                  E.[.u.m M H M K M K K K B R K R R R R R R R ! Q ! ! Q ! ! ! ! ! ! Q ! ! Q Q R R R R R K R K K K K B M M B M M M 2 2 ; /.[.!.                  ",
"                  [.[.2 M M M K M B K H M K K R R R R R R R R R R Q R ! E Q E R R E Q R R Q R R R R R R K K K K B K B M B M M M M 2 2 1 f [._.                  ",
"                !.[.B.b M H M M M M B B B K R K R R K R R E K R R R R R R Q Q R R R R R R R E R R R K R R K K K H K M K H M M M M 2 2 1 ; [.[.                  ",
"                _.[.e m 1 2 M 2 M M m S N D B B B B D S D D S F F F F G D D F S G G Q G F D R D D S D B N S b b N N M M M c m 1 2 2 2 < : b.[.E.                ",
"                [.'.; 2 2 2 M 2 H N r P.P.m N z.h N v.J.f U I.J.N.N.P.j F r I.].I.U S r P.P.M D j P.M.Z M.B.N.N.b.7 M N 7 P.N.1 2 2 2 2 1 q [.[.                ",
"              ~.[.u.: 2 1 2 M 2 H N u.[.).Z t [.B b [.[.z r Y.P.R.[.[.y r [.U.u.[.B.A u.[.[.N S ).[.U.v [.[.b.'.[.N.N m u.[.[.; 2 2 2 2 < ; Q.[.!.              ",
"              [.[.< 1 2 2 2 M M M b J.[.b.v ].q S 7 [.[.9 S Z C J.[.I.C ].[.9 Y [.[.A B.[.[.C q [.[.u.9 [.[.v u.[.T.b m '.[.[.n 2 2 2 2 2 : s [._.              ",
"            !.[.B.; 2 2 2 2 2 2 2 n [.[.g x.x.b N g [.[.b K D g [.[.U j [.).A g [.[.C ].[.[.C V.[.[.r f [.).C S.[.V.v e '.[.'.; 2 < 2 2 < , = [.[.              ",
"            (.[.e 1 2 2 2 2 2 2 m 7 [.[.p [.: M N c.[.Y.b B N ].[.c.A Y.[.b.A u.[.`.c ].[.].C /.[.[.n S.[.m.v [.[.e v J.i.[.(.; 2 2 < < 2 < ; c.[.~.            ",
"            [.).= 1 2 2 2 2 2 2 m g [.[.T.[.7 M b T.[.x.N N z.[.[.N c [.[.l Z B.[.J.y N.[.(.g B.[.).C ).[.B.S.[.f c 2 ).s [.T.: < 2 2 2 2 < 1 0 [.[.            ",
"          ~.[.d m 2 < 2 < 2 < 1 c c.[.[.[.[.u N c [.[.g N 8 [.[.j N u [.[.8 C ).[.u.x.z.[.I.m.c.[.m.c [.[.I.[.'.e n z.d f [.I.c 2 2 < 2 < 1 , = E.[.!.          ",
"          [.[.$.&Xo.! K M < 2 M F T.[.P.[.[.j m q [.[.H ' U.[.Q.Z m d [.[.b H [.[.>.Q.k [.).x.T.[.z y [.[.n z.[./.v '.: z.[.P.c < < , , , < < - h [.W.          ",
"        A.[.Z.;X1.o.....E E ^ $..X[.[.>.[.[.u.b z [.].[ ,.[.[.6.&X%.D.[.I.@.k [.[.@.].,.[.[.9 [.[.<.p.[./.C u.[.(.9 '.a J.[.B.; , & 2 1 4 , - , - [.[.          ",
"        W.[.t | E K R ^ *X-X&X,X7.[.[.Q '.[.C.%XG.[.K.rX'.[.G.rXqXrXG.[.D.+Xn.[.Z.T U.x [._.7.[.[.] U.[.n.[ B.[.C.V.[.[.[.[.m.c M 2 o.2...B 2 , # c.[.~.        ",
"        [.)..X2.2.*X2X0X-X&. .Q x [.[.C R.[.U.$X(.[.f.j.[.'.F ' | #XF.[.p.%X[.[./ z u.z [.a.d.[.T.[ ].[.g.%.[.[.g [.Z A B.[.l.S ^ $.iX0X-X1. .K , 8 [.[.        ",
"      ~.[.f.eX1X<XyXxX3X&.( P Q Z.[.P.] K.[.`.#X[.[.>.[.[.[.(.)./.OX6.[.Q.C.[.d A B.t z.[.E A.[.n.( [.[.J.'.[.^.f.D.;X,XQ.[.n.oX-X1XpX,X<X1X0X*X! G U.[.A.      ",
"      [.[.&X&X..E ! &.<X-X-X*XXXu.G.g.lXd.D.D.3.n.b.8 b.l.c.n.n.p.lXlXa.T.U.g.OX} z.M s x.' z.b.,.6.n.D.D.D.d.rXp.8XeXeXp.n.g.mXxXaXyX0XiXmXSXNXtX;X0.[.(.      ",
"    A.[.M.m H H ! 3.7XVXNXmXzXxXlXlXlXqXXX%.%.} %.| } | G %.rX9X&X-X#.#..X#XvXaXaX9X} { Q ! %.%.,XlX9X9XqX,X&.{ } ..2.&.&X9XiXZXmXsX6X2X:X6XxXAXAXvXqX].[.      ",
"    (.[.>.R E 2.xXZXcXxX1X;X2XiX1X1X .^ &.:XX.o.o.&.<X2.&.1.*X$.Q  .X.O.R R &.1XiXxXlXaXyX-X1X1XqXlX1. .$.&.&X .K R .. .o.0XxXyX&XK M P  .E o.1XsXZXeXx.[.E.    ",
"    [.(.kXiXuXmXNXiXtXaX6X<X*X2X3X0X3XxXNXVXzXsXyXaXmXaXyX1XpXpXiX0X0X6X&X&. . . .*X-X-XyX1X,X1X-X*X..2.zXNXVX1X! R R *.0X5X .R ~ < < 2 (  .^ O.o.:X3X_ [.[.    ",
"  ~.[.f.eX2X2XpX0X<XuX-X .*X0XvXbXzXmXzXxX3XxXmXmXmXcXzXVXpXtX-X-X,XiXuXyXaX0X-XQ H H K E E o.} $.wXxXaXvXzXmXAXCXpXwXzX2XH , , H 2 & 2 H o.( ! 2Xo.#.@.!.[.A.  ",
"  !.[.f.&.! o.$.2.2.o.E K 2.3X3.$.qX3X2X*X,X<X:X-X2...2.2.,X2.o.yX,X0XD ^ X.sXSXsXwX&.&.:X*XtXsXMXaX3X-X2.$.2.sXSXAXAXCXyXo.M < P <.6 M < 6 V M ! <.! .X_.[.    ",
"    [.'.| &X0X4X2.:X2.$.*XE ! ..<X$.{ $.;X3.^ K H ^ E ^ ^ *X^ ! / $.2.W ! ..o.;X4XzXzXpX0XtX-XyX3X$.R K ..o.H R -XyXqXxXVXSXuXX.~ { H & < 4 E 6 E { D y [.'.    ",
"    ~.[.,.wX6X1.H E K o.2XE E ~  .^ 3X-XtXE 2 < , =X*X^ 1 M o.$.1.2.6 o.P =X..L K ^ o. .! =XE P  .o.! E M 3 3 * , ....E E :XbXZXVXxXDXwX .K *X( ( 3.,XS.[.!.    ",
"      [.K.OXH K =X2X .P &.^ tXO.^ $.1X3X1., & , & 1X{ R E  .NXtX2.-X{ 2X;XK  .H  .&X1 M ! o.H 6 M !  .2 4 M 4X2.X.2.4X3X=X{ <X&X:XsXE 5X3.4X6XE K Q ~ [.[.      ",
"      '.[.W K ! P ( E ..2X:X*X2.pX:X..o.H > * & K 3.E E B X.X.XXOXiX2.! ~ ..{ S | XXP R #.| & m : K M V m > { / K J K O.*.o.4X&XO...iX>X..! 3.$.=X<Xp.[.W.      ",
"      !.[.p.&XuXK 6 3 P ;XiX2XpX7X{ O.<XR 2 m ( 2.J H ..2XX.G l I.I.7.eXXX} p.I.P.w N m i.b.p 7 M.y 1 1 e a 0X*.&XtX! / W H R 4X:X( XXCXpXO.2 2 < | `.[.        ",
"        [.'.b P L ! 2.X.J 5X<.o.H P tX .J H ( $.( H M I H N k.[.b.J.Q.,XXXR.[.a.[.[.} .X[.[.g g [.c.1 1 m.s B / O.>X .=XyXO.H K K T J E wXNX*.M 1 i [.'.        ",
"        W.[.g K , ( 2X^ M 2.! ..{ ..L , ^ yX..U P ..:X| Q 0.[.E.] ` ].9XF.[.F.%X).[.6.5.[.[.2 c.[.I.= ; (.5.=X&.;XpX4XO.2 H / 4.K H H P >X4XuX3.| B.[.!.        ",
"          [.U. X4.U 6 6 ! 7X .pXo.I :X;X2.J M 1 1 L H M D '.[.k yX0./.' [.[.7.9X[.[.r x [.[.v T.[.[.; N [..XmXwX5X3.sX6X3X:X*.6XL ! ~ K <.tXwX4X4.[.[.          ",
"          '.[. ...K K L ..o.<XmXsX4X6XwX( K U ( <...XXiXg.[.[.,X&.z nXs.[.[.rX$.[.[.9 n.[.N.n [.[.[.H 0 Q.,X*.M 3./ O.3 3 E <.3.L 4 < 2 4 ( XXaXF.[.~.          ",
"          !.[.k.: , K 6X:XgX&X*.V 1.O._ *. .3.5X;X2XuXxXA.[.P.| { $.cXK.[.U.eX0.[.[.#X_.[.u.9 T.[.[.>.x |.&.>X<.J P ~ O.M I 3 J 3.8XW P P 2 E qX'.[.            ",
"            [.[.S  .O.I / 4.MXMXBXBXsXfX8XgXsX7XzX>X4.9X[.[.p.&.:XdXrX].[.}.cXF.[.`.@.[.[.-.z f.'.[.x V.0.{ 5X4.J W ~ dX4.P 3 * Y / & < 2 7 , p [.].            ",
"            ~.[.g.-XE sXuXVXNXhX*.~ 3 I ) 4.uX4X*.o.{ 8 [.[.>.X.%.` 3.[.[.0.#XP.[.A.7.[.[.Z J.6.U.[.D._.K L 7 4 I $ > _ I I 3 _ < 8 + & o % c P.[.!.            ",
"              [.P.V 4XBXgX7X> Y 2 4 O.gX4X4XsX .E E R y [.[.3 M N [.-.[.[.O.qX[.[.k f.[.).# ].b c.[.(._.c I 2 , I V 8 5 & I >X/ / >X>XJ H 2 5 [.[.              ",
"              '.[.hXpX*.yXO.( V ) , +.5X) <.J 2 P K 2 a [.[.S { u ).u [.[.A r [.[.@.A.[.G.' '.A z [.[.A.G , 1 < V O.4.Y +.4.hXI L ) W 3 2 : z.[.~.              ",
"              E.[.F.R H 4.J / P W >X4X( > O.4 H 2 , 1 g [.[.b b U.d q [.(.[ H.[.F. X`.[.f.g.L..Xq [.[.j.&.J I V J  .dX3 4 3 ~ o J L 5 Y @ . [.[.                ",
"                [.[.= J & L % 4 2 >XE 4 P 2.R H H 6 2 4 [.[.u.v.(.D 1 [.[.g [.(.R R [.[.` x.a.G $ [.[.q O.2 4 % 4 3 Y 3 4.% Y & U @ % M pX0.[.].                ",
"                W.[.g m @ J J < +.2 4 4 3X..< % & & < $ l ).].b.< M 2.g._.[.V.1 1.>.P.P.2.k.-.4X; M.P.@ J 7 H H 3 $ Y L 5 L V Y 4 Y I ) B E.[.!.                ",
"                  [.I.# & < K P ^ P 6 < E 4 * < & < < $ Q # = - , H 3 | = ; m N 2.<X{ 2 -XK $ 8X2XK N > > ~ $ 6 M <  .o * Y >X7XP @ 4 1 o [.[.                  ",
"                  [.[.8 M < >X:X< & @ * P % * 2 < & & % E , 2 2 2 $ & E 2 H 2 7 3 ! K ! 7 , H 2 / *.U J I >X8X) ) 4.fX<.W 3 V I 6 H U 1 v.[.W.                  ",
"                  !.[.x.- < ( 7 , & , * P % & & < < * % P < 6 2 , & & U < E H & , E * :Xo.% & 4 4 P MX5XO., Y V @ * o J 4.sX>X4XuXfX=XX.[.[.                    ",
"                    [.[.= & M @ 2 < , < H % & & % & * 7 o.H < & & & % o.P 4 2 & 2 K 2 ( E H H 2 2 4 & 2 dX3X4X4XMX=X=.3.3.&X4XsX3.3.XX0.[.[.                    ",
"                    W.[.a + H & & 3 & H 2 * * * < < 2 ( 3.2 2 3 2 6 H 6X^ < & * < 2 I P , & & 2 2 6 P ( P 6 6 1 I +.dX&.T 6 + 7 X < D Y.[.!.                    ",
"                      [.I.# M % & < * 1.< < < < < < * 2 * % & & , , & P 2 P ( K K ( H H & & & & & % &  .1.E ~ W * 1 6 3 M H P o.2XE 8 [.[.                      ",
"                      [.[.O M & , $ 4 3X& & & & % & & 2 % % * & & & % 7 & & 2 P 2.4X, P % & % & * & & & & 7 7 6 o.uXE P 6 2 2 U $.- c.[.Q.                      ",
"                      !.[.v.N * < H H 2 % % $ % & $ & < & * * & & & & 2 , % * * P ^ ( 1.* & & & & & % * & @ < * & P < % @ % & & , m [.[.                        ",
"                        [.[.R H 7 < < 2 % % & & & % < & & & & & % $ % 7 < & < 2 7 * P *XM 2 2 4 2 < < ^ 6 % & & , & , % & < 6 X + j [.].                        ",
"                        W.[.s.: & & & < @ % & & % 2 P , & @ & & & % % < < 2 < M 2 6 7 2 < & & , * * 7 ..T < < & < 2 2 < & < & & + T.[.E.                        ",
"                          [.T.+ < % & < X & & & $ ( ..4 2 < < < , * 2 P H M < 2 & 6 , < @ & & % & % @ 2 2 , , , 7 < 6 ^ H & $ $ 0 [.[.                          ",
"                          [.[.0 , X & + $ @ @ & $ M 2 # @ & & & & , ! 1.M & % 3 @ , & & @ $ @ @ + . & < @ & @ . @ % X ( ! 2 3 1 l.[.W.                          ",
"                          E.[.l.# . y.w.HXr.y.w.h.h.GXKX9.9.` h.KXy.JX:.w.h.e.h.w.JXHX8.@ * y.HXJX9.t.9.9.w.8.GXt.{.;.{.{.t.@ + [.[.                            ",
"                            [.[.$ - e.q.h.9.;.:.JXq.8.JXy.{.9 9.w.7.:.9.9.hXLXw.8.;.KXt.. w.r.KX9.. JX` 9.5 ;.y.;.9.;.{.y.;.+ s [.[.                            ",
"                            W.[.s c FXq.r.t.y.q.9.8.;.8.;.h.y.{.h.q.HX% t.jXjXGX7.jX` GX8 9.:.r.;.. HX9.0.8.{.t.q.` r.8.{.` # R.[.~.                            ",
"                              [.R.= @ . X + @ + . & % @ $ . + $ @ @ - , < - $ $ M o.E & $ @ @ @ @ X % . + . + + $ @ + $ . . O [.[.                              ",
"                              [.[.O $ @ % & % % @ & * & & & & & < & < < , & & & < U H < 7 2 2 2 < 2 & X $ & @ @ % & @ < @ + b.[.W.                              ",
"                              ~.[.l.= + # # # # # = # # = ; # = = = = = # # = = = # # = = = - ; b | - # # # # + # # # ; # + [.[.                                ",
"                                [.[.T.R.R.R.R.R.R.R.R.R.R.R.R.R.R.R.R.R.R.R.R.R.R.R.R.R.R.R.R.R.R.R.R.R.R.R.R.R.R.R.R.R.R.(.[.[.                                ",
"                                W.[.[.[.[.[.[.[.[.[.[.[.[.[.[.[.[.[.[.[.[.[.[.[.[.[.[.[.[.[.[.[.[.[.[.[.[.[.[.[.[.[.[.[.[.[.[.E.                                ",
"                                  P.P.P.P.P.P.P.P.P.P.P.P.P.P.P.P.P.P.P.P.P.P.P.P.P.P.P.P.P.P.P.P.P.P.P.P.P.P.P.P.P.P.P.N.P.P.                                  ",
"                                                                                                                                                                "
};
