/* XPM */
static char *_8029a5077bb430bd8c1836a4714e7e8[] = {
/* columns rows colors chars-per-pixel */
"32 32 209 2 ",
"   c None",
".  c #000B25",
"X  c #00032C",
"o  c #000C2C",
"O  c #001026",
"+  c #00132C",
"@  c #0A1F2E",
"#  c #000133",
"$  c #000A33",
"%  c #000C3C",
"&  c #000639",
"*  c #011533",
"=  c #021933",
"-  c #00153B",
";  c #021C3B",
":  c #0C1E3D",
">  c #0B202A",
",  c #0D243E",
"<  c #0B2433",
"1  c #1A3131",
"2  c #1F3A3E",
"3  c #192B2C",
"4  c #25392A",
"5  c #3E512C",
"6  c #29433B",
"7  c #354D35",
"8  c #374B2F",
"9  c #5D661C",
"0  c #6C791C",
"q  c #445931",
"w  c #4E6029",
"e  c #52662B",
"r  c #5D7229",
"t  c #5D7634",
"y  c #516B39",
"u  c #6F7E21",
"i  c #65772B",
"p  c #000542",
"a  c #000C44",
"s  c #000D4C",
"d  c #00004D",
"f  c #001344",
"g  c #001C44",
"h  c #001649",
"j  c #001B4B",
"k  c #0A1D40",
"l  c #000E5C",
"z  c #000052",
"x  c #001454",
"c  c #001B54",
"v  c #00175A",
"b  c #001C5B",
"n  c #022345",
"m  c #01234B",
"M  c #0B2A4B",
"N  c #082848",
"B  c #102E41",
"V  c #002453",
"C  c #022D55",
"Z  c #0D2D51",
"A  c #00265A",
"S  c #00295C",
"D  c #092F58",
"F  c #043056",
"G  c #04315C",
"H  c #0C375C",
"J  c #143A5A",
"K  c #1B3947",
"L  c #001765",
"P  c #002464",
"I  c #002B63",
"U  c #00236B",
"Y  c #002F69",
"T  c #023564",
"R  c #043866",
"E  c #01336C",
"W  c #043A6C",
"Q  c #0D3864",
"!  c #123A65",
"~  c #002575",
"^  c #00287C",
"/  c #003271",
"(  c #033C72",
")  c #083E73",
"_  c #00337A",
"`  c #00397B",
"'  c #1C4049",
"]  c #1A4759",
"[  c #194959",
"{  c #315042",
"}  c #2B5857",
"|  c #0A4272",
" . c #04427C",
".. c #044175",
"X. c #154F7E",
"o. c #0B426A",
"O. c #285E61",
"+. c #336A69",
"@. c #3A7366",
"#. c #4F5959",
"$. c #436646",
"%. c #4C7044",
"&. c #527C52",
"*. c #5B7C42",
"=. c #4A5765",
"-. c #5E6661",
";. c #5F6860",
":. c #4B626D",
">. c #626C62",
",. c #6A746B",
"<. c #717D72",
"1. c #76851F",
"2. c #7A851C",
"3. c #7C851A",
"4. c #798F2E",
"5. c #7F932D",
"6. c #7C9233",
"7. c #7C963B",
"8. c #71903D",
"9. c #6B8632",
"0. c #5F8551",
"q. c #7C9944",
"w. c #769743",
"e. c #618A51",
"r. c #4C8560",
"t. c #7B857A",
"y. c #7A8173",
"u. c #939B0D",
"i. c #989F0E",
"p. c #818E1F",
"a. c #8A971C",
"s. c #939C11",
"d. c #97A116",
"f. c #98A71F",
"g. c #A8AD0C",
"h. c #B1B70C",
"j. c #B4BA0D",
"k. c #A4AD14",
"l. c #A9B110",
"z. c #B2BE14",
"x. c #869724",
"c. c #8B9F33",
"v. c #97AA24",
"b. c #9EB32B",
"n. c #95B338",
"m. c #91AA36",
"M. c #A5B827",
"N. c #B8C71C",
"B. c #BBC006",
"V. c #BBD22C",
"C. c #C6CC0D",
"Z. c #C9CE0B",
"A. c #C1C60C",
"S. c #CBD20F",
"D. c #DADD05",
"F. c #D4D909",
"G. c #C0C610",
"H. c #C9D616",
"J. c #D7DF12",
"K. c #DCE30C",
"L. c #D9E414",
"P. c #E3E504",
"I. c #E6E906",
"U. c #EAF00A",
"Y. c #F4F201",
"T. c #FAF600",
"R. c #FFFE00",
"E. c #E8F012",
"W. c #818575",
"Q. c #98C155",
"!. c #002B84",
"~. c #002E8D",
"^. c #00368D",
"/. c #003794",
"(. c #034482",
"). c #024884",
"_. c #0A4C85",
"`. c #00428B",
"'. c #064C88",
"]. c #174F81",
"[. c #0E538B",
"{. c #13558C",
"}. c #135A89",
"|. c #004B9D",
" X c #004795",
".X c #055192",
"XX c #0E5997",
"oX c #06569A",
"OX c #105D99",
"+X c #136399",
"@X c #267091",
"#X c #2F6E83",
"$X c #0153AD",
"%X c #0458A3",
"&X c #115FA1",
"*X c #0044B4",
"=X c #0C62A5",
"-X c #1364A9",
";X c #1868A7",
":X c #0D68B8",
">X c #136CB5",
",X c #116CBE",
"<X c #1475C7",
"1X c #107BD3",
"2X c #1C80CA",
"3X c #1781DB",
"4X c #1685E2",
"5X c #2193E8",
"6X c #849A91",
/* pixels */
"              Y.T.T.T.T.T.T.T.T.T.T.T.T.T.T.T.T.Y.              ",
"            R.5.6.6.7.7.q.q.q.q.q.q.q.7.7.6.6.4.v.R.            ",
"            P.L U ~ ^ ^ !.~.~./.~.~.!.^ ~ U P L l R.            ",
"          R.y L A Y Y / / _ _ _ _ _ / / Y Y S V x x.R.          ",
"          R.x V S S Y Y Y / E / / / E Y I A S V c m R.          ",
"          v.x V V S S Y Y Y Y Y Y Y Y S S S V V m x C.          ",
"        R., j V V V S S I P I I P I S S A V V m g h 5 R.        ",
"        K.s j m m V V V S S S S S A A V V m m m n g p R.        ",
"      R.e h g j x c c b x v b b b b c v v x h h h f - 2.        ",
"      R.p ; f u 5 w i e k.C.6 l.i i q p.w h.h.s d.1 - - R.      ",
"      d.% - % K.3.n D.2 7 C.A.7 D.S.r R.u a.R.; R.1 - & G.      ",
"    R.< * - & R.P.z R.d R., R.6 j.D.u.Y.p.F.s.5 P.< * - 8 R.    ",
"    L._ C A [ K.R.g K.9.n.[ S.4.v.N.j.N.F.5 S.s.R.+ - * # T.    ",
"  R.r.`.oXE 9.a.R.w.V.R.t +.S.F.r g.v.x.R.b.S.} R.P oX'.P 1.    ",
"  T.b W >X:X@X+X} ] K { @. X$.+X[.[ ] }.+.O.Q /.@.4X=X=X5X<XR.  ",
"  Q.$X<X=X'.:X>X<X<X1X:X%X%X.X(...).).|.oX3X+X(. .m O m I  XN.  ",
"  n.`. .T T  .). .T T R R (.V XX-X.XoX=XR I OX2X>X| Q = m U H.  ",
"  Y.U T G _.| '.n O ..V |.`./ b P c j h h m m ) W =X-X .( o.R.  ",
"  R.*.c T _.W ) m G V P g.k.{.z.h.%.3.B.$ r ^.) D D G ;Xc a.    ",
"    K.P n  .XX_.G n E 8.m.&.N.+.T.v.0 R.8 #X .[.R | g W $XR.    ",
"    R.K E ;X;X].].-X|.E.} *XR.+.J.L.i E.x.` M Q M k M * y R.    ",
"      M.:X{.: ! {.G x R.x 1.I.e.c.R.q k.A.a k B H H J & F.      ",
"      T.- : M Q G , & R.1.7 U.Z.$.J.0.2.M.h ; Z : k * J R.      ",
"      R.e m F + n + $ ; @ f B ; R G g W * D N ! : H f s.        ",
"        I.a * * = + + F = + G + ; G * ; | Q | ! _.{.^.R.        ",
"        R.3 o C = + = = * * n n T = O + N n C F ; S w R.        ",
"          M.- - O O + O O O + = n G + = n O + = + X D.          ",
"          R.X . . o m o O - m + + . . . * + . g - @ R.          ",
"          R.9 :.,.t.t.W.;.t.:.6X<.#.,.>.>.-.,.y.=.u.            ",
"            P.& $ o X o ; - $ % V - $ # o $ X $ X R.            ",
"            R.i.u.u.s.s.s.s.u.s.u.u.s.v.s.u.u.s.h.R.            ",
"                                                                "
};
